<?xml version="1.0" encoding="UTF-8" standalone="no"?>
<!DOCTYPE svg PUBLIC "-//W3C//DTD SVG 1.1//EN" "http://www.w3.org/Graphics/SVG/1.1/DTD/svg11.dtd">
<svg version="1.1" xmlns="http://www.w3.org/2000/svg" xmlns:xlink="http://www.w3.org/1999/xlink" preserveAspectRatio="xMidYMid meet" viewBox="0 0 640 640" width="640" height="640"><defs><path d="M54.27 26.6C54.27 31.51 55.99 33.7 59.87 33.7C63.74 33.7 65.46 31.5 65.46 26.6C65.46 21.71 63.74 19.51 59.87 19.51C55.99 19.51 54.27 21.7 54.27 26.6ZM56.16 26.6C56.16 23.13 56.76 21.25 59.87 21.25C62.97 21.25 63.57 23.13 63.57 26.6C63.57 30.08 62.98 31.96 59.87 31.96C56.75 31.96 56.16 30.08 56.16 26.6Z" id="a3DIEiQcrE"></path><path d="M70.89 19.6L68.97 19.99L68.97 33.47L70.71 33.47L70.71 22.94L76.97 33.47L78.87 33.47L78.87 19.74L77.13 19.74L77.13 30.09L70.89 19.6Z" id="c5ME9d7kAq"></path><path d="M90.77 33.47L90.77 31.73L84.54 31.73L84.54 27.04L89.49 27.04L89.67 25.3L84.54 25.3L84.54 21.48L90.77 21.48L90.77 19.74L82.66 19.74L82.66 33.47L90.77 33.47Z" id="bdIH7F4sQ"></path><path d="M104.88 21.98C104.89 21.99 104.95 22.03 105.07 22.1L105.83 20.5C105.73 20.44 105.68 20.41 105.67 20.4C104.49 19.61 102.97 19.51 101.8 19.51C98.09 19.51 96.37 21.76 96.37 26.6C96.37 31.44 98.09 33.69 101.8 33.69C102.99 33.69 104.49 33.59 105.67 32.79C105.68 32.79 105.72 32.75 105.81 32.7L105.07 31.11C104.95 31.18 104.89 31.22 104.88 31.23C103.97 31.74 102.93 31.99 101.88 31.96C99.6 31.96 98.27 31.08 98.27 26.6C98.27 22.13 99.6 21.25 101.88 21.25C102.93 21.22 103.97 21.47 104.88 21.98Z" id="j2EnOai8F"></path><path d="M107.86 33.47L109.86 33.47L110.81 30.35L115.7 30.35L116.73 33.59L118.74 33.35L114.17 19.63L112.39 19.83L107.86 33.47ZM113.28 22.42L115.22 28.67L111.36 28.67L113.28 22.42Z" id="auwwNtSIq"></path><path d="M125.34 19.51C124.09 19.52 122.86 19.67 121.65 19.96C121.64 19.96 121.59 19.97 121.49 19.99L121.49 33.47L123.36 33.47L123.36 28.6L126.36 28.6L129.22 33.68L131.2 33.22C129.37 30.16 128.34 28.45 128.14 28.11C129.38 27.71 130.73 26.71 130.73 24.25C130.73 21.11 128.91 19.51 125.34 19.51ZM126.2 26.86C126.01 26.86 125.06 26.86 123.37 26.86C123.37 23.64 123.37 21.85 123.37 21.49C124.04 21.34 124.73 21.26 125.41 21.25C127.78 21.25 128.84 22.15 128.84 24.19C128.84 25.88 127.87 26.86 126.2 26.86Z" id="a2ShxFdLJ"></path><path d="M142.21 33.47L142.21 31.73L135.97 31.73L135.97 27.04L140.93 27.04L141.1 25.3L135.97 25.3L135.97 21.48L142.21 21.48L142.21 19.74L134.1 19.74L134.1 33.47L142.21 33.47Z" id="f2MhKeRLH"></path><path d="M153.82 33.47L153.82 31.73L147.59 31.73L147.59 27.04L152.55 27.04L152.72 25.3L147.59 25.3L147.59 21.48L153.82 21.48L153.82 19.74L145.71 19.74L145.71 33.47L153.82 33.47Z" id="b1iFJQDa7Z"></path><path d="M166.55 24.25C166.55 21.11 164.73 19.51 161.15 19.51C159.91 19.52 158.67 19.67 157.46 19.96C157.45 19.96 157.4 19.97 157.31 19.99L157.31 33.47L159.18 33.47L159.18 28.6L162.18 28.6L165.03 33.68L167.02 33.22L163.96 28.11C165.68 27.17 166.55 25.88 166.55 24.25ZM162.01 26.86C161.82 26.86 160.88 26.86 159.18 26.86C159.18 23.64 159.18 21.85 159.18 21.49C159.85 21.34 160.54 21.26 161.23 21.25C163.6 21.25 164.65 22.15 164.65 24.19C164.65 25.88 163.69 26.86 162.01 26.86Z" id="h1iVumjZHD"></path><path d="M175.29 19.92C176.37 19.66 177.47 19.52 178.59 19.51C181.45 19.51 184.07 20.63 184.07 24.24C184.07 27.63 181.32 28.67 178.53 28.67C177.71 28.67 176.89 28.59 176.09 28.43C176.09 28.77 176.09 30.45 176.09 33.47L175.29 33.47C175.29 25.34 175.29 20.82 175.29 19.92ZM183.27 24.24C183.27 21.2 181.07 20.26 178.69 20.26C177.82 20.25 176.94 20.35 176.1 20.56C176.1 21.27 176.1 26.96 176.1 27.67C176.9 27.83 177.73 27.91 178.55 27.91C180.95 27.91 183.27 27.13 183.27 24.24Z" id="hjmQYXcCC"></path><path d="M186.69 19.74L187.49 19.74L187.49 32.73L194.37 32.73L194.37 33.47L186.69 33.47L186.69 19.74Z" id="d1jBXdPiYf"></path><path d="M200.93 33.71C197.45 33.71 196 31.45 196 26.61C196 26.15 196 23.86 196 19.74L196.8 19.74C196.8 23.87 196.8 26.16 196.8 26.62C196.8 30.98 197.9 32.99 200.93 32.99C203.95 32.99 205.03 30.99 205.03 26.62C205.03 26.16 205.03 23.87 205.03 19.74L205.84 19.74L205.84 26.61C204.88 31.34 203.25 33.71 200.93 33.71Z" id="a1XDkf2WUh"></path><path d="M216.27 29.82C216.27 27.98 214.52 27.43 212.46 26.83C210.22 26.17 208.41 25.42 208.41 23.09C208.41 20.46 210.34 19.52 212.52 19.52C213.87 19.52 215.13 19.71 216.25 20.32C216.22 20.39 215.98 20.94 215.95 21.01C214.91 20.48 213.74 20.22 212.57 20.26C210.69 20.26 209.21 20.95 209.21 23.07C209.21 24.97 210.8 25.48 212.73 26.06C214.97 26.74 217.07 27.39 217.07 29.84C217.07 32.62 215.11 33.7 212.75 33.7C210.92 33.7 209.23 33.27 208.01 32.49C208.05 32.42 208.32 31.87 208.35 31.8C209.67 32.58 211.18 32.98 212.72 32.96C214.58 32.96 216.27 32.18 216.27 29.82Z" id="c57iP9wF8"></path><path d="M19.24 30.72C18.4 30.67 16.9 30.35 16.47 29.73C16 29.03 15.78 27.64 15.78 26.63C15.78 21.03 20.57 16.1 26.05 16.1C26.11 16.1 26.54 16.1 26.6 16.1C25.37 17.31 24.1 19.19 22.62 21.96C22.07 22.98 21.17 25.13 21.17 26.8C21.17 27.64 21.39 28.48 21.82 29.21C22.11 29.72 22.5 30.18 22.96 30.55C22.08 30.7 21.19 30.77 20.3 30.76C19.94 30.76 19.58 30.76 19.24 30.72Z" id="a4QkOVB4"></path><path d="M35.11 30.91C35.11 28.68 35.11 27.44 35.11 27.2C35.11 27.14 35.09 27.09 35.05 27.06C35.02 27.02 34.97 27 34.91 27C34.72 27 33.2 27 33.01 27C32.96 27 32.91 27.02 32.88 27.06C32.84 27.09 32.82 27.14 32.82 27.2C32.82 27.44 32.82 28.68 32.82 30.91C30.59 30.91 29.35 30.91 29.1 30.91C29.05 30.91 29 30.93 28.96 30.97C28.92 31 28.9 31.05 28.9 31.1C28.9 31.29 28.9 32.81 28.9 33C28.9 33.05 28.92 33.1 28.96 33.14C29 33.17 29.05 33.19 29.1 33.19C29.35 33.19 30.59 33.19 32.82 33.19C32.82 35.42 32.82 36.66 32.82 36.91C32.82 36.96 32.84 37.01 32.88 37.05C32.91 37.08 32.96 37.1 33.01 37.1C33.2 37.1 34.72 37.1 34.91 37.1C34.94 37.1 34.97 37.1 34.99 37.09C35.01 37.08 35.03 37.06 35.05 37.05C35.07 37.03 35.08 37.01 35.09 36.98C35.1 36.96 35.11 36.93 35.11 36.91C35.11 36.66 35.11 35.42 35.11 33.19C37.34 33.19 38.58 33.19 38.83 33.19C38.88 33.19 38.93 33.17 38.97 33.14C39 33.1 39.03 33.05 39.03 33C39.03 32.81 39.03 31.29 39.03 31.1C39.03 31.05 39.01 31 38.97 30.97C38.93 30.93 38.88 30.91 38.83 30.91C38.33 30.91 37.09 30.91 35.11 30.91Z" id="bkny91tqz"></path><path d="M33.01 25.21C33.2 25.21 34.72 25.21 34.91 25.21C35.35 25.21 35.78 25.35 36.13 25.62C36.47 25.88 36.72 26.26 36.84 26.68C36.79 23.06 34.88 19.41 31.58 17.52C30.76 17.04 29.54 16.56 28.68 16.56C28.67 16.56 28.56 16.56 28.54 16.56C27.79 16.62 26.75 17.76 26.29 18.46C25.6 19.48 25.03 20.59 24.6 21.75C25.27 21.49 25.99 21.39 26.71 21.45C27.43 21.51 28.13 21.72 28.75 22.08C30.05 22.84 31.34 24.45 32.02 25.47C32.32 25.3 32.67 25.21 33.01 25.21Z" id="baLqIk5Ix"></path><path d="M29.1 34.99C28.57 34.99 28.06 34.78 27.69 34.41C27.32 34.03 27.11 33.53 27.11 33C27.11 32.87 27.11 31.85 27.11 31.73C26.1 31.98 25.07 32.13 24.03 32.17C23.43 32.19 22.86 32.2 22.32 32.2C20.07 32.2 18.31 32.02 16.97 31.66C17.11 31.89 17.22 32.09 17.25 32.13C19.02 35.2 22.51 37.1 26.33 37.1C27.96 37.11 29.56 36.73 31.02 36.01C31.02 35.94 31.02 35.6 31.02 34.99C29.87 34.99 29.23 34.99 29.1 34.99Z" id="bul0lJMcM"></path><path d="M226.68 20.15C227.76 19.88 228.87 19.74 229.98 19.74C232.85 19.74 235.46 20.85 235.46 24.46C235.46 27.85 232.71 28.89 229.92 28.89C229.1 28.89 228.29 28.81 227.48 28.66C227.48 28.99 227.48 30.67 227.48 33.7L226.68 33.7C226.68 25.57 226.68 21.05 226.68 20.15ZM234.66 24.47C234.66 21.43 232.46 20.49 230.09 20.49C229.21 20.48 228.34 20.58 227.49 20.79C227.49 21.5 227.49 27.18 227.49 27.89C228.3 28.05 229.12 28.13 229.95 28.13C232.34 28.13 234.66 27.35 234.66 24.47Z" id="a4SqvHJZB0"></path><path d="M238.66 19.97L239.47 19.97L239.47 32.95L246.34 32.95L246.34 33.7L238.66 33.7L238.66 19.97Z" id="d40JGMgK18"></path><path d="M253.83 33.7C250.36 33.7 248.9 31.45 248.9 26.6C248.9 26.15 248.9 23.86 248.9 19.74L249.71 19.74C249.71 23.87 249.71 26.16 249.71 26.62C249.71 30.98 250.81 32.99 253.83 32.99C256.86 32.99 257.94 30.99 257.94 26.62C257.94 26.16 257.94 23.87 257.94 19.74L258.75 19.74L258.75 26.6C257.79 31.34 256.15 33.7 253.83 33.7Z" id="b6dmiH78T"></path><path d="M269.64 29.81C269.64 27.97 267.9 27.42 265.83 26.82C263.59 26.16 261.79 25.41 261.79 23.08C261.79 20.45 263.71 19.51 265.89 19.51C267.25 19.51 268.5 19.71 269.62 20.31C269.59 20.38 269.35 20.93 269.32 21C268.28 20.47 267.12 20.21 265.94 20.26C264.06 20.26 262.59 20.94 262.59 23.06C262.59 24.96 264.18 25.47 266.1 26.05C268.34 26.73 270.45 27.38 270.45 29.83C270.45 32.62 268.48 33.7 266.12 33.7C264.29 33.7 262.61 33.26 261.39 32.48C261.42 32.41 261.69 31.86 261.73 31.79C263.05 32.57 264.55 32.97 266.09 32.95C267.95 32.95 269.64 32.17 269.64 29.81Z" id="c3hHP3ow3C"></path><path d="M47.32 30.91C47.32 28.68 47.32 27.44 47.32 27.2C47.32 27.14 47.3 27.09 47.26 27.06C47.23 27.02 47.18 27 47.12 27C46.93 27 45.41 27 45.22 27C45.17 27 45.12 27.02 45.09 27.06C45.05 27.09 45.03 27.14 45.03 27.2C45.03 27.44 45.03 28.68 45.03 30.91C42.8 30.91 41.56 30.91 41.31 30.91C41.26 30.91 41.21 30.93 41.17 30.97C41.13 31 41.11 31.05 41.11 31.1C41.11 31.29 41.11 32.81 41.11 33C41.11 33.05 41.13 33.1 41.17 33.14C41.21 33.17 41.26 33.19 41.31 33.19C41.56 33.19 42.8 33.19 45.03 33.19C45.03 35.42 45.03 36.66 45.03 36.91C45.03 36.96 45.05 37.01 45.09 37.05C45.12 37.08 45.17 37.1 45.22 37.1C45.41 37.1 46.93 37.1 47.12 37.1C47.15 37.1 47.18 37.1 47.2 37.09C47.22 37.08 47.24 37.06 47.26 37.05C47.28 37.03 47.29 37.01 47.3 36.98C47.31 36.96 47.32 36.93 47.32 36.91C47.32 36.66 47.32 35.42 47.32 33.19C49.55 33.19 50.79 33.19 51.04 33.19C51.09 33.19 51.14 33.17 51.18 33.14C51.21 33.1 51.24 33.05 51.24 33C51.24 32.81 51.24 31.29 51.24 31.1C51.24 31.05 51.22 31 51.18 30.97C51.14 30.93 51.09 30.91 51.04 30.91C50.54 30.91 49.3 30.91 47.32 30.91Z" id="c1RVA5WAR6"></path></defs><g><g><g><use xlink:href="#a3DIEiQcrE" opacity="1" fill="#333333" fill-opacity="1"></use><g><use xlink:href="#a3DIEiQcrE" opacity="1" fill-opacity="0" stroke="#000000" stroke-width="1" stroke-opacity="0"></use></g></g><g><use xlink:href="#c5ME9d7kAq" opacity="1" fill="#333333" fill-opacity="1"></use><g><use xlink:href="#c5ME9d7kAq" opacity="1" fill-opacity="0" stroke="#000000" stroke-width="1" stroke-opacity="0"></use></g></g><g><use xlink:href="#bdIH7F4sQ" opacity="1" fill="#333333" fill-opacity="1"></use><g><use xlink:href="#bdIH7F4sQ" opacity="1" fill-opacity="0" stroke="#000000" stroke-width="1" stroke-opacity="0"></use></g></g><g><use xlink:href="#j2EnOai8F" opacity="1" fill="#333333" fill-opacity="1"></use><g><use xlink:href="#j2EnOai8F" opacity="1" fill-opacity="0" stroke="#000000" stroke-width="1" stroke-opacity="0"></use></g></g><g><use xlink:href="#auwwNtSIq" opacity="1" fill="#333333" fill-opacity="1"></use><g><use xlink:href="#auwwNtSIq" opacity="1" fill-opacity="0" stroke="#000000" stroke-width="1" stroke-opacity="0"></use></g></g><g><use xlink:href="#a2ShxFdLJ" opacity="1" fill="#333333" fill-opacity="1"></use><g><use xlink:href="#a2ShxFdLJ" opacity="1" fill-opacity="0" stroke="#000000" stroke-width="1" stroke-opacity="0"></use></g></g><g><use xlink:href="#f2MhKeRLH" opacity="1" fill="#333333" fill-opacity="1"></use><g><use xlink:href="#f2MhKeRLH" opacity="1" fill-opacity="0" stroke="#000000" stroke-width="1" stroke-opacity="0"></use></g></g><g><use xlink:href="#b1iFJQDa7Z" opacity="1" fill="#333333" fill-opacity="1"></use><g><use xlink:href="#b1iFJQDa7Z" opacity="1" fill-opacity="0" stroke="#000000" stroke-width="1" stroke-opacity="0"></use></g></g><g><use xlink:href="#h1iVumjZHD" opacity="1" fill="#333333" fill-opacity="1"></use><g><use xlink:href="#h1iVumjZHD" opacity="1" fill-opacity="0" stroke="#000000" stroke-width="1" stroke-opacity="0"></use></g></g><g><use xlink:href="#hjmQYXcCC" opacity="1" fill="#333333" fill-opacity="1"></use><g><use xlink:href="#hjmQYXcCC" opacity="1" fill-opacity="0" stroke="#000000" stroke-width="1" stroke-opacity="0"></use></g></g><g><use xlink:href="#d1jBXdPiYf" opacity="1" fill="#333333" fill-opacity="1"></use><g><use xlink:href="#d1jBXdPiYf" opacity="1" fill-opacity="0" stroke="#000000" stroke-width="1" stroke-opacity="0"></use></g></g><g><use xlink:href="#a1XDkf2WUh" opacity="1" fill="#333333" fill-opacity="1"></use><g><use xlink:href="#a1XDkf2WUh" opacity="1" fill-opacity="0" stroke="#000000" stroke-width="1" stroke-opacity="0"></use></g></g><g><use xlink:href="#c57iP9wF8" opacity="1" fill="#333333" fill-opacity="1"></use><g><use xlink:href="#c57iP9wF8" opacity="1" fill-opacity="0" stroke="#000000" stroke-width="1" stroke-opacity="0"></use></g></g><g><use xlink:href="#a4QkOVB4" opacity="1" fill="#0071bc" fill-opacity="1"></use><g><use xlink:href="#a4QkOVB4" opacity="1" fill-opacity="0" stroke="#000000" stroke-width="1" stroke-opacity="0"></use></g></g><g><use xlink:href="#bkny91tqz" opacity="1" fill="#0071bc" fill-opacity="1"></use><g><use xlink:href="#bkny91tqz" opacity="1" fill-opacity="0" stroke="#000000" stroke-width="1" stroke-opacity="0"></use></g></g><g><use xlink:href="#baLqIk5Ix" opacity="1" fill="#0071bc" fill-opacity="1"></use><g><use xlink:href="#baLqIk5Ix" opacity="1" fill-opacity="0" stroke="#000000" stroke-width="1" stroke-opacity="0"></use></g></g><g><use xlink:href="#bul0lJMcM" opacity="1" fill="#0071bc" fill-opacity="1"></use><g><use xlink:href="#bul0lJMcM" opacity="1" fill-opacity="0" stroke="#000000" stroke-width="1" stroke-opacity="0"></use></g></g><g><use xlink:href="#a4SqvHJZB0" opacity="1" fill="#333333" fill-opacity="1"></use><g><use xlink:href="#a4SqvHJZB0" opacity="1" fill-opacity="0" stroke="#000000" stroke-width="1" stroke-opacity="0"></use></g></g><g><use xlink:href="#d40JGMgK18" opacity="1" fill="#333333" fill-opacity="1"></use><g><use xlink:href="#d40JGMgK18" opacity="1" fill-opacity="0" stroke="#000000" stroke-width="1" stroke-opacity="0"></use></g></g><g><use xlink:href="#b6dmiH78T" opacity="1" fill="#333333" fill-opacity="1"></use><g><use xlink:href="#b6dmiH78T" opacity="1" fill-opacity="0" stroke="#000000" stroke-width="1" stroke-opacity="0"></use></g></g><g><use xlink:href="#c3hHP3ow3C" opacity="1" fill="#333333" fill-opacity="1"></use><g><use xlink:href="#c3hHP3ow3C" opacity="1" fill-opacity="0" stroke="#000000" stroke-width="1" stroke-opacity="0"></use></g></g><g><use xlink:href="#c1RVA5WAR6" opacity="1" fill="#0071bc" fill-opacity="1"></use><g><use xlink:href="#c1RVA5WAR6" opacity="1" fill-opacity="0" stroke="#000000" stroke-width="1" stroke-opacity="0"></use></g></g></g></g></svg>